<svg xmlns="http://www.w3.org/2000/svg" width="256" height="256" viewBox="0 0 256 256"><title>Transferencia Switch UI Icon</title><desc>Icono original inspirado en estética retro de consola de 16 bits, sin marcas ni logotipos.</desc><g stroke="#29263A" stroke-width="10" stroke-linecap="round" stroke-linejoin="round"><rect x="62" y="62" width="132" height="132" rx="18" fill="#CFCFD7"/><rect x="82" y="84" width="92" height="72" rx="12" fill="#7353B6"/><rect x="84" y="170" width="16" height="24" rx="2" fill="#FFD65A"/><rect x="108" y="170" width="16" height="24" rx="2" fill="#FFD65A"/><rect x="132" y="170" width="16" height="24" rx="2" fill="#FFD65A"/><rect x="156" y="170" width="16" height="24" rx="2" fill="#FFD65A"/><line x1="62" y1="84" x2="42" y2="84"/><line x1="62" y1="116" x2="42" y2="116"/><line x1="62" y1="148" x2="42" y2="148"/><line x1="194" y1="84" x2="214" y2="84"/><line x1="194" y1="116" x2="214" y2="116"/><line x1="194" y1="148" x2="214" y2="148"/><path d="M62 184 C42 184 36 206 54 216 C76 228 82 194 62 184 Z" fill="#35D7CE"/><path d="M194 184 C214 184 220 206 202 216 C180 228 174 194 194 184 Z" fill="#35D7CE"/><path d="M54 184 C54 142 202 142 202 184" fill="none"/><circle cx="128" cy="112" r="24" fill="#35D7CE"/></g></svg>