<svg xmlns="http://www.w3.org/2000/svg" width="256" height="256" viewBox="0 0 256 256"><title>Transferencia Switch UI Icon</title><desc>Icono original inspirado en estética retro de consola de 16 bits, sin marcas ni logotipos.</desc><g stroke="#29263A" stroke-width="10" stroke-linecap="round" stroke-linejoin="round"><path d="M82 98 C82 74 100 58 122 58 C136 58 148 64 156 74" fill="none"/><path d="M174 158 C174 182 156 198 134 198 C120 198 108 192 100 182" fill="none"/><path d="M112 92 L144 124" fill="none"/><path d="M144 132 L112 164" fill="none"/><circle cx="58" cy="180" r="28" fill="#E7E7EA"/><rect x="42" y="168" width="32" height="20" rx="6" fill="#171923"/><rect x="48" y="174" width="12" height="8" rx="3" fill="#35D7CE" stroke="none"/><circle cx="198" cy="76" r="24" fill="#35D7CE"/><path d="M188 76 H208 M198 66 V86" fill="none" stroke="#F7F7FA" stroke-width="10"/></g></svg>