<svg xmlns="http://www.w3.org/2000/svg" width="256" height="256" viewBox="0 0 256 256"><title>Transferencia Switch UI Icon</title><desc>Icono original inspirado en estética retro de consola de 16 bits, sin marcas ni logotipos.</desc><g stroke="#29263A" stroke-width="10" stroke-linecap="round" stroke-linejoin="round"><path d="M70 34 L164 34 L202 72 L202 214 L54 214 L54 50 Q54 34 70 34 Z" fill="#E7E7EA"/><rect x="74" y="76" width="108" height="82" rx="12" fill="#B9ACDC"/><text x="128" y="132" text-anchor="middle" font-family="DejaVu Sans, Arial" font-size="44" font-weight="700" fill="#7353B6" stroke="none">SD</text><rect x="78" y="48" width="16" height="28" rx="4" fill="#CFCFD7"/><rect x="106" y="48" width="16" height="28" rx="4" fill="#CFCFD7"/><rect x="134" y="48" width="16" height="28" rx="4" fill="#CFCFD7"/><rect x="162" y="48" width="16" height="28" rx="4" fill="#CFCFD7"/><rect x="92" y="176" width="72" height="12" rx="6" fill="#29263A" opacity="0.55"/><circle cx="184" cy="180" r="28" fill="#E7E7EA"/><rect x="171" y="178" width="26" height="22" rx="5" fill="#CFCFD7"/><path d="M176 178 V168 Q176 158 184 158 Q192 158 192 168 V178" fill="none"/></g></svg>