<svg xmlns="http://www.w3.org/2000/svg" width="256" height="256" viewBox="0 0 256 256"><title>Transferencia Switch UI Icon</title><desc>Icono original inspirado en estética retro de consola de 16 bits, sin marcas ni logotipos.</desc><g stroke="#29263A" stroke-width="10" stroke-linecap="round" stroke-linejoin="round"><rect x="62" y="62" width="132" height="132" rx="18" fill="#CFCFD7"/><rect x="82" y="84" width="92" height="72" rx="12" fill="#B9ACDC"/><rect x="84" y="170" width="16" height="24" rx="2" fill="#FFD65A"/><rect x="108" y="170" width="16" height="24" rx="2" fill="#FFD65A"/><rect x="132" y="170" width="16" height="24" rx="2" fill="#FFD65A"/><rect x="156" y="170" width="16" height="24" rx="2" fill="#FFD65A"/><line x1="62" y1="84" x2="42" y2="84"/><line x1="62" y1="116" x2="42" y2="116"/><line x1="62" y1="148" x2="42" y2="148"/><line x1="194" y1="84" x2="214" y2="84"/><line x1="194" y1="116" x2="214" y2="116"/><line x1="194" y1="148" x2="214" y2="148"/><path d="M128 42 V166" fill="none" stroke="#7353B6" stroke-width="16"/><path d="M96 136 L128 168 L160 136" fill="#7353B6" stroke="none"/></g></svg>